<svg width="24" height="24" viewBox="0 0 24 24" fill="none" xmlns="http://www.w3.org/2000/svg">
<path d="M0 2C0 0.89543 0.895431 0 2 0H22C23.1046 0 24 0.895431 24 2V22C24 23.1046 23.1046 24 22 24H2C0.89543 24 0 23.1046 0 22V2Z" fill="#FCFCFC"/>
<mask id="mask0_242_2" style="mask-type:luminance" maskUnits="userSpaceOnUse" x="2" y="2" width="20" height="20">
<path d="M22 2H2V22H22V2Z" fill="white"/>
</mask>
<g mask="url(#mask0_242_2)">
<path d="M11.9213 2.00006C11.8585 1.99893 11.7967 2.01349 11.7431 2.04205L11.4346 2.20399C11.3934 2.22548 11.3576 2.25402 11.3292 2.28791C11.3009 2.3218 11.2807 2.36034 11.2699 2.40122C11.259 2.44211 11.2576 2.48449 11.2659 2.52584C11.2742 2.56719 11.292 2.60665 11.3181 2.64185L15.6709 8.39996C15.7013 8.43728 15.7401 8.46876 15.7849 8.4925C15.8297 8.51622 15.8795 8.53168 15.9314 8.5379C15.9823 8.54094 16.0333 8.53508 16.0816 8.52067C16.1299 8.50625 16.1743 8.48357 16.2125 8.45393L19.2081 5.99475C19.2506 5.96261 19.283 5.92149 19.3022 5.87528C19.3214 5.82908 19.3267 5.77936 19.3178 5.73083C19.3127 5.68192 19.2938 5.63488 19.2627 5.59401C19.2316 5.55315 19.1892 5.51976 19.1395 5.4969L12.0995 2.06604C12.0472 2.03156 11.986 2.0089 11.9213 2.00006ZM9.54952 3.02572C9.48684 3.03031 9.42716 3.0512 9.37814 3.0857L2.14625 7.82414C2.09524 7.85804 2.05516 7.90296 2.02993 7.95447C2.0047 8.00599 1.99517 8.06235 2.00229 8.11804L2.87972 14.5359C2.90028 14.6799 3.03053 14.7938 3.19504 14.8118L8.93943 15.5136C9.00027 15.522 9.06256 15.5165 9.12021 15.4976C9.17787 15.4787 9.22895 15.447 9.26848 15.4056L15.2939 9.26367C15.3517 9.20661 15.3837 9.133 15.3837 9.05674C15.3837 8.98047 15.3517 8.90686 15.2939 8.84981L9.8717 3.12169C9.83103 3.08389 9.78041 3.05539 9.72425 3.03866C9.66808 3.02193 9.60809 3.01749 9.54952 3.02572ZM19.3932 6.67851C19.3149 6.69043 19.2444 6.72664 19.1943 6.78049L11.1947 15.4656C11.1574 15.504 11.1332 15.5508 11.1247 15.6006C11.1162 15.6504 11.1238 15.7013 11.1467 15.7475C11.169 15.7939 11.2047 15.8344 11.2504 15.8649C11.2961 15.8954 11.3502 15.9149 11.4072 15.9215L20.1129 16.7313C20.1544 16.7363 20.1967 16.7336 20.2368 16.7232C20.277 16.7129 20.3143 16.6951 20.346 16.6713L21.8471 15.6216C21.891 15.5914 21.9248 15.5517 21.9452 15.5064C21.9657 15.4611 21.9721 15.4118 21.9637 15.3637L20.5379 7.18236C20.5294 7.13356 20.5065 7.0875 20.4717 7.04864C20.4368 7.00978 20.3913 6.9794 20.339 6.96043L19.5576 6.69651C19.5054 6.67882 19.4489 6.67265 19.3932 6.67851ZM3.6406 15.1357C3.59186 15.1356 3.54414 15.1481 3.50351 15.1717C3.47583 15.1903 3.45296 15.2138 3.43641 15.2407C3.41987 15.2676 3.41003 15.2972 3.40754 15.3277L3.33214 17.1271C3.32909 17.1615 3.3371 17.1961 3.35526 17.2268C3.37343 17.2576 3.40103 17.2833 3.43496 17.301L11.9076 21.9735C11.942 21.9908 11.981 22 12.0207 22C12.0604 22 12.0994 21.9908 12.1338 21.9735L17.9194 19.3043C17.9573 19.2854 17.9883 19.2572 18.0083 19.2232C18.0284 19.1892 18.0367 19.1508 18.0324 19.1128C18.0279 19.0746 18.0111 19.0385 17.9838 19.0086C17.9563 18.9788 17.9197 18.9565 17.8783 18.9444L3.7023 15.1477L3.6406 15.1357Z" fill="#06D6A0"/>
</g>
</svg>
