<svg width="144" height="144" viewBox="0 0 144 144" fill="none" xmlns="http://www.w3.org/2000/svg">
<mask id="mask0_244_98" style="mask-type:luminance" maskUnits="userSpaceOnUse" x="0" y="0" width="144" height="144">
<path d="M144 0H0V144H144V0Z" fill="white"/>
</mask>
<g mask="url(#mask0_244_98)">
<path d="M72 0C32.2673 0 0 32.2673 0 72C0 111.733 32.2673 144 72 144C111.733 144 144 111.733 144 72C143.917 32.2673 111.733 0.0829493 72 0Z" fill="white"/>
<path fill-rule="evenodd" clip-rule="evenodd" d="M72 0C32.2673 0 0 32.2673 0 72C0 111.733 32.2673 144 72 144C111.733 144 144 111.733 144 72C143.917 32.2673 111.733 0.0829493 72 0ZM46.0368 41.6409L49.106 35.4198C51.1797 31.1893 55.2442 28.7838 61.0507 28.7838H93.235C94.7281 28.7009 96.3041 29.1156 97.5484 30.028C98.4608 30.6916 98.9585 31.77 98.9585 32.9313C98.9585 33.7608 98.7096 34.6732 98.3778 35.4198H61.2166C58.894 35.4198 57.1521 35.5856 55.2442 39.1525L54 41.6409L30.6912 90.0833H22.5622L46.0368 41.6409ZM20.8203 98.876C20.8203 100.037 21.3179 101.116 22.2304 101.779C23.4746 102.692 24.9677 103.106 26.5438 102.858H73.8249C79.6313 102.858 83.6958 100.452 85.7696 96.2216L85.9354 95.8069C86.0913 95.6511 86.182 95.4627 86.2689 95.2826C86.3207 95.1751 86.3711 95.0704 86.4331 94.9774L106.59 53.2539H98.4608L94.4792 61.6318L93.152 64.4521L93.0691 64.7009L80.7926 90.1663L79.5484 92.6548C77.6405 96.2216 75.8986 96.3875 73.576 96.3875H31.5207C31.4792 96.3875 31.4378 96.3668 31.3963 96.3461C31.3548 96.3253 31.3133 96.3046 31.2719 96.3046H21.4838C21.0691 97.1341 20.8203 97.9636 20.8203 98.876ZM95.0599 107.253C94.977 107.378 94.894 107.523 94.8111 107.668C94.7281 107.813 94.6452 107.958 94.5622 108.083L94.3964 108.497C92.3226 112.728 88.2581 115.133 82.4517 115.133H50.2673C48.7742 115.216 47.1982 114.802 45.954 113.889C45.0415 113.226 44.5438 112.147 44.5438 110.986C44.5438 110.073 44.7927 109.244 45.2074 108.415H54.9954C55.0369 108.415 55.0784 108.435 55.1199 108.456C55.1613 108.477 55.2028 108.497 55.2443 108.497H82.6175C84.6913 108.497 86.3503 108.166 88.1752 104.848L89.4194 102.359L112.811 53.668H120.94L95.0599 107.253ZM71.2534 46.9491H122.516C122.848 46.2026 123.097 45.2901 123.18 44.5436C123.18 43.3823 122.682 42.3039 121.77 41.6404C120.525 40.7279 118.949 40.3132 117.456 40.3961H70.6728C64.8663 40.3961 60.8018 42.8016 58.7281 47.0321L37.8248 90.3316H45.788L50.5161 80.7924L65.1981 50.35C66.8571 47.5298 68.599 46.9491 71.2534 46.9491Z" fill="#00C805"/>
</g>
</svg>
