<svg width="144" height="144" viewBox="0 0 144 144" fill="none" xmlns="http://www.w3.org/2000/svg">
<rect width="144" height="144" rx="20" fill="black"/>
<path d="M34 29C34 27.8954 34.8954 27 36 27H89V39H34V29Z" fill="#00B06E"/>
<path d="M56 49H111V59C111 60.1046 110.105 61 109 61H56V49Z" fill="#00B06E"/>
<path d="M34 37H46V69C46 70.1046 45.1046 71 44 71H34V37Z" fill="#00B06E"/>
<path d="M99 27H109C110.105 27 111 27.8954 111 29V49H99V27Z" fill="#00B06E"/>
<rect x="56" y="61" width="12" height="56" fill="#00B06E"/>
<path d="M78 77H88C89.1046 77 90 77.8954 90 79V115C90 116.105 89.1046 117 88 117H78V77Z" fill="#00B06E"/>
</svg>
